<?xml version="1.0" encoding="UTF-8"?>
<svg width="30px" height="51px" viewBox="0 0 30 51" version="1.1" xmlns="http://www.w3.org/2000/svg" xmlns:xlink="http://www.w3.org/1999/xlink">
    <!-- Generator: Sketch 48.2 (47327) - http://www.bohemiancoding.com/sketch -->
    <title>Page 1</title>
    <desc>Created with Sketch.</desc>
    <defs>
        <polygon id="path-1" points="6.52173913e-05 0.045 29.8887391 0.045 29.8887391 50.3478261 6.52173913e-05 50.3478261"></polygon>
    </defs>
    <g id="Jumpshot" stroke="none" stroke-width="1" fill="none" fill-rule="evenodd" transform="translate(-705.000000, -7259.000000)">
        <g id="Page-1" transform="translate(705.000000, 7259.000000)">
            <g id="Group-3" transform="translate(0.000000, 0.085435)">
                <mask id="mask-2" fill="white">
                    <use xlink:href="#path-1"></use>
                </mask>
                <g id="Clip-2"></g>
                <path d="M28.8453261,36.3370435 C28.8453261,39.6326087 27.299413,42.9506087 24.6041087,45.4402174 C21.9454565,47.895913 18.468587,49.3043478 15.0652826,49.3043478 C11.6262391,49.3043478 8.10202174,47.9384348 5.39628261,45.5568261 C2.58932609,43.0861304 1.04354348,39.9005217 1.04354348,36.5869565 L1.04354348,23.7352174 C1.04354348,22.197913 2.29415217,20.9471739 3.83158696,20.9471739 C5.3688913,20.9471739 6.61963043,22.197913 6.61963043,23.7352174 L6.61963043,29.2663043 C6.61963043,31.3789565 8.33836957,33.0978261 10.4511522,33.0978261 L20.3805,33.0978261 C20.6686304,33.0978261 20.9022391,32.8642174 20.9022391,32.576087 C20.9022391,32.2879565 20.6686304,32.0543478 20.3805,32.0543478 L10.4511522,32.0543478 C8.91371739,32.0543478 7.6631087,30.8036087 7.6631087,29.2663043 C7.6631087,27.729 8.91371739,26.4782609 10.4511522,26.4782609 L26.3478913,26.4782609 C26.3622391,26.4782609 26.376587,26.4777391 26.3909348,26.4764348 C26.399413,26.4755217 27.2821957,26.4217826 27.9668478,27.0521739 C28.5497609,27.588913 28.8453261,28.4746957 28.8453261,29.6848696 L28.8453261,36.3370435 Z M7.6631087,22.4308696 C7.6631087,20.8935652 8.91371739,19.6428261 10.4511522,19.6428261 C11.9884565,19.6428261 13.2391957,20.8935652 13.2391957,22.4308696 L13.2391957,25.4347826 L10.4511522,25.4347826 C9.35315217,25.4347826 8.36223913,25.8996522 7.6631087,26.6422174 L7.6631087,22.4308696 Z M17.0707174,18.3384783 C18.6080217,18.3384783 19.8587609,19.5892174 19.8587609,21.1265217 L19.8587609,25.4347826 L14.2826739,25.4347826 L14.2826739,21.1265217 C14.2826739,19.5892174 15.5332826,18.3384783 17.0707174,18.3384783 Z M20.9022391,3.87652174 C20.9022391,2.33921739 22.1528478,1.08847826 23.6902826,1.08847826 C25.227587,1.08847826 26.4783261,2.33921739 26.4783261,3.87652174 L26.4783261,25.4323043 C26.4119348,25.4316522 26.3605435,25.4332174 26.3318478,25.4347826 L20.9022391,25.4347826 L20.9022391,21.1265217 L20.9022391,3.87652174 Z M28.6735435,26.2845652 C28.299587,25.9402174 27.8921087,25.7346522 27.5218043,25.6113913 L27.5218043,3.87652174 C27.5218043,1.76386957 25.8029348,0.045 23.6902826,0.045 C21.5775,0.045 19.8587609,1.76386957 19.8587609,3.87652174 L19.8587609,18.501 C19.1595,17.7588261 18.1683261,17.295 17.0707174,17.295 C15.3502826,17.295 13.8913696,18.4348696 13.4087609,19.9987826 C12.7054565,19.145087 11.6411087,18.5993478 10.4511522,18.5993478 C8.7311087,18.5993478 7.27219565,19.7388261 6.78932609,21.3024783 C6.08602174,20.448913 5.02128261,19.9036957 3.83158696,19.9036957 C1.71880435,19.9036957 6.52173913e-05,21.6225652 6.52173913e-05,23.7352174 L6.52173913e-05,36.5869565 C6.52173913e-05,40.2046957 1.67158696,43.6685217 4.70680435,46.340087 C7.6005,48.887087 11.3759348,50.3478261 15.0652826,50.3478261 C18.7280217,50.3478261 22.4627609,48.8384348 25.3121087,46.2067826 C28.2206739,43.5202174 29.8888043,39.9228261 29.8888043,36.3370435 L29.8888043,29.6848696 C29.8888043,28.1710435 29.4798913,27.027 28.6735435,26.2845652 Z" id="Fill-1" fill="#FEFEFE" mask="url(#mask-2)"></path>
            </g>
            <path d="M20.3188435,34.6931348 C20.2580609,34.7004391 18.813887,34.881613 17.3647565,35.8884391 C16.0225826,36.820787 14.4226696,38.6584826 14.4226696,42.1181348 C14.4226696,42.4062652 14.6562783,42.6398739 14.9444087,42.6398739 C15.2325391,42.6398739 15.4661478,42.4062652 15.4661478,42.1181348 C15.4661478,36.4130478 20.2400609,35.7544826 20.4434087,35.7291783 C20.7288,35.6944826 20.9325391,35.4353087 20.8984957,35.1496565 C20.8645826,34.863613 20.6068435,34.6589609 20.3188435,34.6931348" id="Fill-4" fill="#FEFEFE"></path>
        </g>
    </g>
</svg>