<svg xmlns="http://www.w3.org/2000/svg" viewBox="0 0 336 41.9"><title>HYPEBEAST</title><polygon points="25.02 0.95 25.02 16.32 8.81 16.32 8.81 0.95 0 0.95 0 41.01 8.81 41.01 8.81 23.73 25.02 23.73 25.02 41.01 33.83 41.01 33.83 0.95 25.02 0.95"/><polygon points="66.64 0.95 57.33 16.77 47.96 0.95 38.09 0.95 52.78 25.41 52.78 41.01 61.59 41.01 61.59 25.64 76.45 0.95 66.64 0.95"/><path d="M98.84,1a16.66,16.66,0,0,1,6.39,1.1A11.88,11.88,0,0,1,109.52,5a11,11,0,0,1,2.41,4.09,15.25,15.25,0,0,1,0,9.51,11,11,0,0,1-2.41,4.12,11.88,11.88,0,0,1-4.29,2.89,16.67,16.67,0,0,1-6.39,1.09H89.58V41.05H80.77V1ZM96.42,19.85a18.39,18.39,0,0,0,2.92-.22,6.77,6.77,0,0,0,2.47-.87,4.73,4.73,0,0,0,1.71-1.83,6.38,6.38,0,0,0,.64-3.08,6.45,6.45,0,0,0-.64-3.09,4.77,4.77,0,0,0-1.71-1.82,6.77,6.77,0,0,0-2.47-.87,18.39,18.39,0,0,0-2.92-.22H89.58v12Z" transform="translate(0 -0.05)"/><polygon points="147.75 0.95 147.75 8.36 126.6 8.36 126.6 16.94 146.01 16.94 146.01 23.79 126.6 23.79 126.6 33.6 148.2 33.6 148.2 41.01 117.79 41.01 117.79 0.95 147.75 0.95"/><path d="M172.71,1a24.71,24.71,0,0,1,5.22.51,11.21,11.21,0,0,1,4,1.65,7.62,7.62,0,0,1,2.61,3.06,10.69,10.69,0,0,1,.93,4.71A8.76,8.76,0,0,1,184.12,16a9.92,9.92,0,0,1-4.06,3.31A9.57,9.57,0,0,1,185.58,23a11.08,11.08,0,0,1,1.83,6.42,11.11,11.11,0,0,1-1.18,5.25,10.27,10.27,0,0,1-3.17,3.62,14.16,14.16,0,0,1-4.54,2.07,20.48,20.48,0,0,1-5.25.67H153.86V1Zm-1.12,16.21a6.32,6.32,0,0,0,3.87-1.12A4.22,4.22,0,0,0,177,12.45a4.72,4.72,0,0,0-.5-2.3,3.81,3.81,0,0,0-1.35-1.41,5.75,5.75,0,0,0-1.93-.7,13,13,0,0,0-2.28-.19h-8.24v9.36Zm.5,17a11.62,11.62,0,0,0,2.47-.25,6.14,6.14,0,0,0,2.08-.84,4.43,4.43,0,0,0,1.43-1.6,5.58,5.58,0,0,0,.53-2.58q0-3.09-1.74-4.41a7.47,7.47,0,0,0-4.6-1.31h-9.59v11Z" transform="translate(0 -0.05)"/><polygon points="222.52 0.95 222.52 8.36 201.37 8.36 201.37 16.94 220.78 16.94 220.78 23.79 201.37 23.79 201.37 33.6 222.97 33.6 222.97 41.01 192.57 41.01 192.57 0.95 222.52 0.95"/><path d="M250.51,1l15,40.05h-9.14l-3-8.91h-15l-3.14,8.91h-8.86L241.48,1ZM251,25.57,246,10.88h-.11l-5.22,14.69Z" transform="translate(0 -0.05)"/><path d="M276,31.18A6.29,6.29,0,0,0,278,33.45a8.4,8.4,0,0,0,2.84,1.29,13.33,13.33,0,0,0,3.36.42,17.44,17.44,0,0,0,2.52-.19,8.94,8.94,0,0,0,2.53-.76,5.42,5.42,0,0,0,2-1.54,3.86,3.86,0,0,0,.79-2.5,3.51,3.51,0,0,0-1-2.63,8.15,8.15,0,0,0-2.72-1.69,27.33,27.33,0,0,0-3.81-1.18c-1.43-.33-2.87-.71-4.32-1.12a37.75,37.75,0,0,1-4.38-1.37,14.64,14.64,0,0,1-3.81-2.11,9.42,9.42,0,0,1-3.76-7.9,10.47,10.47,0,0,1,1.32-5.36A11.92,11.92,0,0,1,272.9,3,15.12,15.12,0,0,1,277.72.78a20.4,20.4,0,0,1,5.39-.73,25.4,25.4,0,0,1,6,.7A15.3,15.3,0,0,1,294.27,3a11.64,11.64,0,0,1,3.56,4A12.3,12.3,0,0,1,299.15,13h-8.53a7.11,7.11,0,0,0-.75-3,5,5,0,0,0-1.72-1.85,7.24,7.24,0,0,0-2.44-1,15.46,15.46,0,0,0-3-.28,10.29,10.29,0,0,0-2.13.23,5.76,5.76,0,0,0-1.93.78,4.9,4.9,0,0,0-1.43,1.4,3.77,3.77,0,0,0-.57,2.14,3.56,3.56,0,0,0,.45,1.9,4,4,0,0,0,1.77,1.35,22.46,22.46,0,0,0,3.65,1.23q2.33.63,6.08,1.57c.75.15,1.79.43,3.12.82a14.94,14.94,0,0,1,3.95,1.88,11.87,11.87,0,0,1,3.39,3.45,9.76,9.76,0,0,1,1.43,5.52,12.27,12.27,0,0,1-1.06,5.11,11.09,11.09,0,0,1-3.17,4.06A15.11,15.11,0,0,1,291,41a24.85,24.85,0,0,1-7.21,1,25.44,25.44,0,0,1-6.42-.81,16.35,16.35,0,0,1-5.5-2.55,12.53,12.53,0,0,1-3.78-4.44,13.1,13.1,0,0,1-1.35-6.39h8.53a7.27,7.27,0,0,0,.73,3.42" transform="translate(0 -0.05)"/><polygon points="303.19 8.36 303.19 0.95 336 0.95 336 8.36 324 8.36 324 41 315.19 41 315.19 8.36 303.19 8.36"/></svg>