<?xml version="1.0" encoding="UTF-8"?>
<svg width="18px" height="13px" viewBox="0 0 18 13" version="1.1" xmlns="http://www.w3.org/2000/svg" xmlns:xlink="http://www.w3.org/1999/xlink">
    <!-- Generator: Sketch 48.2 (47327) - http://www.bohemiancoding.com/sketch -->
    <title>mail</title>
    <desc>Created with Sketch.</desc>
    <defs></defs>
    <g id="Page-1" stroke="none" stroke-width="1" fill="none" fill-rule="evenodd">
        <g id="mail" transform="translate(1.000000, 0.000000)" fill="#DDDDDD" fill-rule="nonzero" stroke="#DDDDDD" stroke-width="0.5">
            <path d="M14.8758261,11.7542609 L1.30434783,11.7542609 C0.585391304,11.7542609 0,11.1693913 0,10.449913 L0,1.55582609 C0,0.836347826 0.585391304,0.251478261 1.30434783,0.251478261 L14.8758261,0.251478261 C15.5947826,0.251478261 16.1801739,0.836347826 16.1801739,1.55582609 L16.1801739,10.449913 C16.1801739,11.1693913 15.5947826,11.7542609 14.8758261,11.7542609 Z M1.30434783,0.773217391 C0.872869565,0.773217391 0.52173913,1.12434783 0.52173913,1.55582609 L0.52173913,10.449913 C0.52173913,10.8813913 0.872869565,11.2325217 1.30434783,11.2325217 L14.8758261,11.2325217 C15.3073043,11.2325217 15.6584348,10.8813913 15.6584348,10.449913 L15.6584348,1.55582609 C15.6584348,1.12434783 15.3073043,0.773217391 14.8758261,0.773217391 L1.30434783,0.773217391 Z" id="Shape"></path>
            <path d="M8.09008696,7.31373913 C7.74313043,7.31373913 7.39617391,7.19843478 7.13217391,6.96834783 L0.433043478,1.12434783 C0.324521739,1.02991304 0.313043478,0.865043478 0.407478261,0.756 C0.502956522,0.647478261 0.667304348,0.637565217 0.775826087,0.730956522 L7.47495652,6.57443478 C7.80834783,6.86504348 8.37182609,6.86504348 8.70469565,6.57443478 L15.3954783,0.740347826 C15.5034783,0.645913043 15.6678261,0.656347826 15.7638261,0.765391304 C15.8582609,0.874434783 15.8473043,1.03878261 15.7387826,1.13373913 L9.048,6.96782609 C8.78347826,7.19843478 8.43704348,7.31373913 8.09008696,7.31373913 Z" id="Shape"></path>
        </g>
    </g>
</svg>