<?xml version="1.0" encoding="UTF-8"?>
<svg width="75px" height="19px" viewBox="0 0 75 19" version="1.1" xmlns="http://www.w3.org/2000/svg" xmlns:xlink="http://www.w3.org/1999/xlink">
    <!-- Generator: Sketch 48.2 (47327) - http://www.bohemiancoding.com/sketch -->
    <title>Page 1</title>
    <desc>Created with Sketch.</desc>
    <defs></defs>
    <g id="Home" stroke="none" stroke-width="1" fill="none" fill-rule="evenodd" transform="translate(-333.000000, -69.000000)">
        <g id="Page-1" transform="translate(333.000000, 69.000000)" fill="#FEFEFE">
            <polygon id="Fill-1" points="14.6936977 0 9.67978956 13.6231479 4.63989913 0 0 0 0 18.5643564 3.78658435 18.5643564 3.78658435 6.98902066 7.99982608 18.5643564 11.3067627 18.5643564 15.5200045 6.98902066 15.5200045 18.5643564 19.3069307 18.5643564 19.3069307 0"></polygon>
            <polygon id="Fill-2" points="23.019802 11.8811881 39.3564356 11.8811881 39.3564356 8.91089109 23.019802 8.91089109"></polygon>
            <polygon id="Fill-3" points="53.6469553 0 49.0236853 14.0599398 44.3731913 0 40.0990099 0 46.8729826 18.5643564 51.147164 18.5643564 57.9207921 0"></polygon>
            <polygon id="Fill-4" points="58.6633663 11.8811881 75 11.8811881 75 8.91089109 58.6633663 8.91089109"></polygon>
        </g>
    </g>
</svg>