<?xml version="1.0" encoding="utf-8"?>
<!-- Generator: Adobe Illustrator 24.1.0, SVG Export Plug-In . SVG Version: 6.00 Build 0)  -->
<svg version="1.1" id="Layer_1" xmlns="http://www.w3.org/2000/svg" xmlns:xlink="http://www.w3.org/1999/xlink" x="0px" y="0px"
	 width="18px" height="13px" viewBox="0 0 18 13" style="enable-background:new 0 0 18 13;" xml:space="preserve">
<style type="text/css">
	.st0{fill:#FFFFFF;}
</style>
<desc>Created with Sketch.</desc>
<path class="st0" d="M15.5,1.9c-0.6,0.2-1.1,0.4-1.7,0.5c0.6-0.4,1.1-1,1.4-1.7c-0.6,0.4-1.2,0.6-1.9,0.7c-0.6-0.6-1.4-1-2.3-1
	c-1.7,0-3.1,1.4-3.1,3.1c0,0.2,0,0.5,0.1,0.7C5.3,4,3.1,2.9,1.6,1C1.3,1.4,1.1,2,1.1,2.5c0,1.1,0.6,2,1.4,2.6C2,5,1.5,4.9,1.1,4.7
	c0,0,0,0,0,0.1c0,1.5,1.1,2.7,2.4,3C3.3,7.8,3.1,7.9,2.8,7.9c-0.2,0-0.4,0-0.6-0.1C2.6,9.1,3.7,10,5.1,10c-1.1,0.8-2.4,1.3-3.8,1.3
	c-0.2,0-0.5,0-0.7-0.1c1.4,0.9,3,1.4,4.7,1.4c5.7,0,8.7-4.7,8.7-8.7c0-0.1,0-0.2,0-0.4C14.5,3,15,2.5,15.5,1.9"/>
</svg>
