<?xml version="1.0" encoding="UTF-8"?>
<svg width="14px" height="12px" viewBox="0 0 14 12" version="1.1" xmlns="http://www.w3.org/2000/svg" xmlns:xlink="http://www.w3.org/1999/xlink">
    <!-- Generator: Sketch 48.2 (47327) - http://www.bohemiancoding.com/sketch -->
    <title>vimeo-logo</title>
    <desc>Created with Sketch.</desc>
    <defs></defs>
    <g id="Home-Copy" stroke="none" stroke-width="1" fill="none" fill-rule="evenodd" transform="translate(-757.000000, -123.000000)">
        <g id="vimeo-logo" transform="translate(757.000000, 123.000000)" fill="#FFFFFF" fill-rule="nonzero">
            <path d="M11.7831979,0.0241925134 C9.86464171,-0.0384064171 8.56633155,1.03780749 7.88650267,3.25405348 C8.23662032,3.10986096 8.57685561,3.03709091 8.90868449,3.03709091 C9.60827807,3.03709091 9.91793583,3.42972193 9.83528342,4.21706952 C9.79427807,4.69386096 9.48519786,5.38761497 8.90868449,6.29807487 C8.32989305,7.21004278 7.89757219,7.66524064 7.61037433,7.66524064 C7.23750802,7.66524064 6.89810695,6.96070588 6.5882246,5.55336898 C6.48429947,5.1388877 6.29845989,4.08346524 6.03237433,2.3844385 C5.78290909,0.810770053 5.12371123,0.0754973262 4.05182888,0.17884492 C3.59839572,0.220524064 2.91914439,0.635775401 2.01259893,1.42164706 C1.35121925,2.02241711 0.681112299,2.62334759 0,3.22366845 L0.648930481,4.06148663 C1.26827807,3.62634225 1.63058824,3.40979679 1.73120856,3.40979679 C2.20613904,3.40979679 2.64965775,4.15479144 3.06237433,5.64458824 C3.43232086,7.01284492 3.80541176,8.37924064 4.17715508,9.74550802 C4.73082353,11.2363957 5.41337968,11.9821283 6.21625668,11.9821283 C7.51485561,11.9821283 9.10485561,10.7607914 10.9799679,8.31721925 C12.7939893,5.97789305 13.7305027,4.13480214 13.7936791,2.7875615 C13.8769412,0.987080214 13.2068342,0.0650695187 11.7831979,0.0241925134 Z" id="Vimeo"></path>
        </g>
    </g>
</svg>